Coordinates
version=1
nRows=8
nColumns=36
inDegrees=yes

Units are S.I. units (second, meters, Newtons, ...)
If the header above contains a line with 'inDegrees', this indicates whether rotational values are in degrees (yes) or radians (no).

endheader
time	pelvis_tilt	pelvis_list	pelvis_rotation	pelvis_tx	pelvis_ty	pelvis_tz	hip_flexion_r	hip_adduction_r	hip_rotation_r	knee_angle_r	knee_angle_r_beta	ankle_angle_r	subtalar_angle_r	mtp_angle_r	hip_flexion_l	hip_adduction_l	hip_rotation_l	knee_angle_l	knee_angle_l_beta	ankle_angle_l	subtalar_angle_l	mtp_angle_l	lumbar_extension	lumbar_bending	lumbar_rotation	arm_flex_r	arm_add_r	arm_rot_r	elbow_flex_r	pro_sup_r	arm_flex_l	arm_add_l	arm_rot_l	elbow_flex_l	pro_sup_l
      2.90416670	     -2.91862360	      0.95501253	     15.29107273	      0.15826133	      0.86460158	     -0.10975746	     26.02524796	     -4.44604303	      4.92654780	     53.13196827	      0.92732778	     19.93512577	    -33.47086102	     -7.49999987	     26.55761004	     -4.05948559	      2.52153163	     44.83521491	      0.78252212	     26.20412522	      1.21651555	     -7.49999987	    -12.50882118	     -0.77691110	      5.80722790	     30.52236473	     -8.21215510	     27.83755461	    105.16671387	    104.94807615	     24.16918466	    -21.75605670	      8.80489467	    134.11871090	     92.89125820
      2.90833330	     -2.59078112	      1.10579665	     15.46876768	      0.15747955	      0.86423768	     -0.10955417	     25.73917540	     -4.34216901	      4.69932048	     53.19152920	      0.92836732	     21.57753142	    -33.56574323	     -7.49999987	     26.92522075	     -4.04803900	      2.72449162	     46.01837232	      0.80317211	     26.80615167	      1.61592630	     -7.49999987	    -13.56405394	     -0.76616395	      5.63817739	     30.98906590	     -8.06402805	     27.82585127	    104.56436223	    105.43747822	     24.28033746	    -21.76834700	      9.05650677	    133.89175109	     93.70147925
      2.91250000	     -2.02105021	      1.41328549	     15.70279969	      0.15693360	      0.85568951	     -0.10934053	     25.42552951	     -4.41482560	      4.49217305	     54.09729522	      0.94417592	     23.24074217	    -33.67312384	     -7.49999987	     27.41638639	     -3.94257603	      2.90116521	     47.96704589	      0.83718288	     27.73418242	      1.86158925	     -7.49999987	    -14.83419125	     -0.81405208	      5.54114070	     31.44093984	     -8.15172739	     28.06870841	    104.41957424	    103.61220992	     24.60481767	    -21.41613923	      9.67031671	    133.85654659	     91.86534135
      2.91666670	     -1.69856975	      1.61682531	     15.58631675	      0.15588857	      0.84965240	     -0.10867157	     25.67650812	     -4.38942451	      4.52989686	     55.31852654	      0.96549043	     24.88239447	    -33.76397614	     -7.49999987	     28.07677815	     -4.21833070	      2.50131814	     49.99118711	      0.87251081	     29.24553405	      2.63282711	     -7.49999987	    -15.66760525	     -0.86263431	      5.28952370	     31.66376036	     -7.70747074	     28.10522475	    103.88152813	    105.26880124	     24.04311115	    -21.23269010	      9.13112233	    134.48999904	     93.77800705
      2.92083330	     -1.46302951	      1.85112288	     15.27013038	      0.15126257	      0.84041345	     -0.11139079	     26.29319808	     -4.46285495	      4.86199105	     56.94124001	      0.99381212	     26.56643633	    -33.88453109	     -7.49999987	     29.32786048	     -4.09012479	      2.33922641	     52.77201749	      0.92104546	     30.45443907	      2.69045759	     -7.49999987	    -16.44845854	     -0.87137258	      5.75107903	     31.41187038	     -7.84124673	     27.82123155	    104.28961567	    101.32781570	     23.95944647	    -20.72596988	      9.85222872	    135.43194595	     90.78403115
      2.92500000	     -1.22372620	      1.92520592	     15.03252395	      0.15073222	      0.83457649	     -0.11100230	     26.64802113	     -4.48302971	      5.09499443	     58.15594519	      1.01501272	     27.92031600	    -34.02097005	     -7.49999987	     30.59026660	     -3.60757652	      3.11722422	     55.60604247	      0.97050853	     31.26594293	      1.52115193	     -7.49999987	    -17.10035513	     -0.38802264	      5.78811193	     31.08994795	     -7.74856655	     27.61461540	    104.60714300	    105.12655121	     22.66525203	    -20.06379392	      8.38766116	    135.93335656	     93.94551959
      2.92916670	     -1.40291435	      2.06103265	     14.74436003	      0.15073295	      0.82921836	     -0.10985786	     27.41636571	     -4.45482699	      5.73878327	     59.34463607	      1.03575929	     29.26472754	    -34.09513796	     -7.49999987	     31.73663666	     -3.08906972	      3.75250518	     57.60359311	      1.00537236	     32.34569956	      1.28899718	     -7.49999987	    -17.47197633	     -0.39256682	      7.18791111	     30.14447482	     -8.45787333	     27.31317025	    105.55628239	     91.13722637	     22.75381625	    -19.38368007	     10.65251071	    135.65065593	     85.73227170
      2.93333330	     -1.31550688	      1.87079983	     14.65310650	      0.15423123	      0.82607153	     -0.10511483	     27.43302398	     -3.84880089	      6.06525377	     60.06358475	      1.04830731	     30.60791102	    -34.06824164	     -7.49999987	     32.27488252	     -3.19612498	      4.34346345	     58.85529573	      1.02721869	     32.73124621	      0.74751480	     -7.49999987	    -18.02321905	      0.31868938	      6.05398540	     30.98173080	     -7.28140825	     28.00737271	    104.31606512	    102.48320275	     19.74886867	    -19.10764713	      7.22759044	    137.09080402	     92.61242691
